<svg xmlns="http://www.w3.org/2000/svg" xmlns:xlink="http://www.w3.org/1999/xlink" width="1315.533" height="743.797" viewBox="0 0 1315.533 743.797"><defs><clipPath id="a"><rect width="254.067" height="153.776" rx="9.347" fill="none"/></clipPath><clipPath id="b"><rect width="213.666" height="129.323" rx="7.86" fill="none"/></clipPath><clipPath id="c"><rect width="215.649" height="130.523" rx="7.933" fill="none"/></clipPath><clipPath id="e"><path d="M800.077,360.53h-277.7c-6.869,0,7.819-47.037,7.819-53.906l52.843-148.4c0-6.869,95.147,3.983,102.017,3.983L800.077,92.589a12.438,12.438,0,0,1,12.438,12.438V348.092A12.438,12.438,0,0,1,800.077,360.53Z" transform="translate(-520.551 -92.589)" fill="none"/></clipPath></defs><g transform="translate(-44.458 -62.897)"><g transform="translate(44.958 63.397)"><g transform="translate(0 51.063)"><g transform="translate(0.853 18.159)"><g transform="translate(484.186 619.968)"><path d="M298.13,430.28l5.784,5.784a16.451,16.451,0,0,1,23.265,0l5.786-5.784a24.628,24.628,0,0,0-34.834,0Z" transform="translate(-278.938 -395.922)" fill="#672ed6"/><path d="M293.312,427.441l5.784,5.784a30.02,30.02,0,0,1,42.456,0l5.786-5.784a38.2,38.2,0,0,0-54.025,0Z" transform="translate(-283.716 -402.679)" fill="#672ed6"/><path d="M325.1,409.436A51.421,51.421,0,0,0,288.494,424.6l5.784,5.784a43.589,43.589,0,0,1,61.648,0l5.786-5.784A51.428,51.428,0,0,0,325.1,409.436Z" transform="translate(-288.494 -409.436)" fill="#672ed6"/><path d="M310.352,429.591a6.983,6.983,0,1,0,6.981,6.983A6.984,6.984,0,0,0,310.352,429.591Z" transform="translate(-273.743 -389.449)" fill="#672ed6"/></g><g transform="translate(617.277 79.248)"><path d="M364.954,158.787l5.786,5.784a16.451,16.451,0,0,1,23.264,0l5.784-5.784a24.628,24.628,0,0,0-34.834,0Z" transform="translate(-345.762 -124.429)" fill="none" stroke="#672ed6" stroke-miterlimit="10" stroke-width="1"/><path d="M360.136,155.948l5.786,5.784a30.02,30.02,0,0,1,42.456,0l5.784-5.784a38.2,38.2,0,0,0-54.026,0Z" transform="translate(-350.54 -131.186)" fill="none" stroke="#672ed6" stroke-miterlimit="10" stroke-width="1"/><path d="M391.927,137.943a51.428,51.428,0,0,0-36.609,15.166l5.786,5.784a43.589,43.589,0,0,1,61.648,0l5.784-5.784A51.421,51.421,0,0,0,391.927,137.943Z" transform="translate(-355.318 -137.943)" fill="none" stroke="#672ed6" stroke-miterlimit="10" stroke-width="1"/><circle cx="6.982" cy="6.982" r="6.982" transform="translate(29.627 40.143)" fill="none" stroke="#672ed6" stroke-miterlimit="10" stroke-width="1"/></g><g transform="translate(748.966 354.886)"><line y2="17.914" transform="translate(8.957 0)" fill="none" stroke="#672ed6" stroke-linecap="round" stroke-linejoin="round" stroke-width="0.75"/><line x2="17.914" transform="translate(0 8.957)" fill="none" stroke="#672ed6" stroke-linecap="round" stroke-linejoin="round" stroke-width="0.75"/></g><g transform="translate(103.635 527.202)"><line y2="17.914" transform="translate(8.957)" fill="none" stroke="#db7294" stroke-linecap="round" stroke-linejoin="round" stroke-width="0.75"/><line x2="17.914" transform="translate(0 8.957)" fill="none" stroke="#db7294" stroke-linecap="round" stroke-linejoin="round" stroke-width="0.75"/></g><g transform="translate(255.204 644.653)"><line y2="17.914" transform="translate(8.957)" fill="none" stroke="#db7294" stroke-linecap="round" stroke-linejoin="round" stroke-width="0.75"/><line x2="17.914" transform="translate(0 8.957)" fill="none" stroke="#db7294" stroke-linecap="round" stroke-linejoin="round" stroke-width="0.75"/></g><g transform="translate(1295.891 501.753)"><line y2="17.914" transform="translate(8.957)" fill="none" stroke="#db7294" stroke-linecap="round" stroke-linejoin="round" stroke-width="0.75"/><line x2="17.914" transform="translate(0 8.957)" fill="none" stroke="#db7294" stroke-linecap="round" stroke-linejoin="round" stroke-width="0.75"/></g><g transform="translate(488.776 103.934)"><line y2="17.914" transform="translate(8.957)" fill="none" stroke="#db7294" stroke-linecap="round" stroke-linejoin="round" stroke-width="0.75"/><line x2="17.914" transform="translate(0 8.957)" fill="none" stroke="#db7294" stroke-linecap="round" stroke-linejoin="round" stroke-width="0.75"/></g><g transform="translate(120.383 34.338)"><line y2="17.914" transform="translate(8.957)" fill="none" stroke="#672ed6" stroke-linecap="round" stroke-linejoin="round" stroke-width="0.75"/><line x2="17.914" transform="translate(0 8.957)" fill="none" stroke="#672ed6" stroke-linecap="round" stroke-linejoin="round" stroke-width="0.75"/></g><g transform="translate(212.603 339.553)"><line y2="17.914" transform="translate(8.957)" fill="none" stroke="#eeda36" stroke-linecap="round" stroke-linejoin="round" stroke-width="0.75"/><line x2="17.914" transform="translate(0 8.957)" fill="none" stroke="#eeda36" stroke-linecap="round" stroke-linejoin="round" stroke-width="0.75"/></g><g transform="translate(573.105 568.139)"><line y2="17.914" transform="translate(8.957)" fill="none" stroke="#eeda36" stroke-linecap="round" stroke-linejoin="round" stroke-width="0.75"/><line x2="17.914" transform="translate(0 8.957)" fill="none" stroke="#eeda36" stroke-linecap="round" stroke-linejoin="round" stroke-width="0.75"/></g><circle cx="6.157" cy="6.157" r="6.157" transform="translate(410.39 103.588)" fill="none" stroke="#eeda36" stroke-linecap="round" stroke-linejoin="round" stroke-width="0.75"/><g transform="translate(1162.921 475.107)"><circle cx="39.553" cy="39.553" r="39.553" transform="translate(0 40.103) rotate(-30.461)" fill="#d96980"/><g transform="translate(31.543 37.429)"><rect width="46.38" height="34.844" fill="none" stroke="#fff" stroke-miterlimit="10" stroke-width="1"/><path d="M645.121,355.5l23.19,21.424L691.5,355.5" transform="translate(-645.121 -355.495)" fill="none" stroke="#fff" stroke-miterlimit="10" stroke-width="1"/></g></g><g transform="translate(62.776 581.063)"><circle cx="32.769" cy="32.769" r="32.769" transform="translate(0 62.726) rotate(-73.155)" fill="#e4b0c8"/><g transform="translate(22.134 27.01)"><rect width="38.426" height="28.868" fill="none" stroke="#fff" stroke-miterlimit="10" stroke-width="1"/><path d="M88.019,403.464l19.213,17.75,19.213-17.75" transform="translate(-88.019 -403.464)" fill="none" stroke="#fff" stroke-miterlimit="10" stroke-width="1"/></g></g><g transform="translate(445.246 36.366)"><circle cx="20.826" cy="20.826" r="20.826" fill="#e4b0c8"/><g transform="translate(8.925 12.024)"><rect width="24.421" height="18.346" fill="none" stroke="#fff" stroke-miterlimit="10" stroke-width="1"/><path d="M273.423,122.449l12.21,11.281,12.21-11.281" transform="translate(-273.423 -122.449)" fill="none" stroke="#fff" stroke-miterlimit="10" stroke-width="1"/></g></g><path d="M183.621,236.279l5.625,9.742,5.625,9.743h-22.5L178,246.022Z" transform="translate(80.539 38.821)" fill="#d96980"/><path d="M425.168,379.5l12.838,11.271,12.838,11.272-16.18,5.482-16.181,5.483,3.342-16.754Z" transform="translate(324.596 180.843)" fill="none" stroke="#d96980" stroke-miterlimit="10" stroke-width="1"/><path d="M78.417,115.606l-4.471,16.488-4.471,16.489L57.431,136.467,45.386,124.351,61.9,119.978Z" transform="translate(-45.386 -80.845)" fill="none" stroke="#d96980" stroke-miterlimit="10" stroke-width="1"/><path d="M714.8,397.634l-3.877,14.3-3.877,14.3L696.6,415.725l-10.445-10.508,14.322-3.792Z" transform="translate(590.03 198.828)" fill="none" stroke="#9e88e5" stroke-miterlimit="10" stroke-width="1"/><path d="M251.394,409.4a9.207,9.207,0,1,1-9.207-9.207A9.206,9.206,0,0,1,251.394,409.4Z" transform="translate(140.641 201.364)" fill="none" stroke="#d96980" stroke-miterlimit="10" stroke-width="1"/><path d="M420.925,111.139A12.987,12.987,0,1,1,407.94,98.153,12.987,12.987,0,0,1,420.925,111.139Z" transform="translate(301.262 -98.153)" fill="none" stroke="#d96980" stroke-miterlimit="10" stroke-width="1"/><path d="M287.007,284.427a8.253,8.253,0,1,1-8.253-8.253A8.253,8.253,0,0,1,287.007,284.427Z" transform="translate(177.849 78.382)" fill="#d96980"/><path d="M420.355,429.875a8.252,8.252,0,1,1-8.253-8.253A8.253,8.253,0,0,1,420.355,429.875Z" transform="translate(310.085 222.616)" fill="#d96980"/><path d="M292.488,367.039a4.924,4.924,0,1,1-4.925-4.923A4.924,4.924,0,0,1,292.488,367.039Z" transform="translate(189.886 163.607)" fill="#e4b0c8"/><circle cx="14.601" cy="14.601" r="14.601" transform="translate(1102.095 644.625) rotate(-22.606)" fill="none" stroke="#d96980" stroke-miterlimit="10" stroke-width="1"/><circle cx="12.8" cy="12.8" r="12.8" transform="translate(873.349 380.425)" fill="none" stroke="#672ed6" stroke-miterlimit="10" stroke-width="1"/><circle cx="11.522" cy="11.522" r="11.522" transform="translate(28.36 471.917)" fill="none" stroke="#672ed6" stroke-miterlimit="10" stroke-width="1"/><path d="M686.76,296.655a9.966,9.966,0,1,1-9.966-9.966A9.967,9.967,0,0,1,686.76,296.655Z" transform="translate(570.868 88.809)" fill="#672ed6"/><path d="M394.362,416.208a9.966,9.966,0,1,1-9.966-9.966A9.967,9.967,0,0,1,394.362,416.208Z" transform="translate(280.911 207.364)" fill="none" stroke="#672ed6" stroke-miterlimit="10" stroke-width="1"/><path d="M618.835,391.942s16.527-1.623,20.852,8.815,6.055,20.544,32.01,7.706" transform="translate(523.276 193.093)" fill="none" stroke="#eeda36" stroke-miterlimit="10" stroke-width="1"/><path d="M86.555,172.209s-2.189,15.131-12.474,16.7-19.7.89-13.936,26.921" transform="translate(-32.49 -24.715)" fill="none" stroke="#eeda36" stroke-miterlimit="10" stroke-width="1"/><path d="M325.256,107.236s16.527-1.621,20.853,8.817,6.055,20.544,32.01,7.706" transform="translate(232.148 -89.236)" fill="none" stroke="#eeda36" stroke-miterlimit="10" stroke-width="1"/><path d="M372.735,229.3a7.462,7.462,0,1,1-7.461-7.463A7.46,7.46,0,0,1,372.735,229.3Z" transform="translate(264.432 24.497)" fill="#eeda36"/><circle cx="9.372" cy="9.372" r="9.372" transform="matrix(0.793, -0.609, 0.609, 0.793, 222.192, 14.819)" fill="none" stroke="#d7d4fc" stroke-miterlimit="10" stroke-width="1"/></g><path d="M214.448,489.281c-93.606,0-169.49-72.014-169.49-160.848,0-62.787,37.909-117.173,93.189-143.666" transform="translate(-44.958 5.897)" fill="none" stroke="#c1c0ff" stroke-miterlimit="10" stroke-width="1" stroke-dasharray="4"/><path d="M431.495,356.37c6.879,62.888-40.437,119.657-105.683,126.795S202.1,445.106,195.215,382.218" transform="translate(104.045 176.068)" fill="none" stroke="#c1c0ff" stroke-miterlimit="10" stroke-width="1" stroke-dasharray="4"/><ellipse cx="115.5" cy="112.94" rx="115.5" ry="112.94" transform="translate(556.37)" fill="none" stroke="#c1c0ff" stroke-miterlimit="10" stroke-width="1" stroke-dasharray="4"/><ellipse cx="110.199" cy="107.756" rx="110.199" ry="107.756" transform="translate(208.154 158.363)" fill="none" stroke="#c1c0ff" stroke-miterlimit="10" stroke-width="1" stroke-dasharray="4"/><ellipse cx="108.054" cy="99.87" rx="108.054" ry="99.87" transform="translate(715.052 323.513)" fill="none" stroke="#c1c0ff" stroke-miterlimit="10" stroke-width="1" stroke-dasharray="4"/></g><g transform="translate(82.081 30.164)"><g transform="translate(0 107.589)"><g transform="translate(68.024 313.98)"><g transform="translate(0 0)"><rect width="292.835" height="201.737" rx="9.347" transform="translate(0 0.785)" fill="#b4aaf9"/><g transform="translate(19.384)"><rect width="254.067" height="153.776" rx="9.347" transform="translate(0 12.517)" fill="#fff"/><path d="M169.859,335.772s-13.79,43.446,14.39,53.038,31.335,1.649,37.6,16.652,31.351,8.53,33.749-14.553-14.635-21.285-23.505-22.484-14.776-17.489-14.692-25.963S173.051,318.076,169.859,335.772Z" transform="translate(-93.935 -252.977)"/><g transform="translate(0 12.517)"><g clip-path="url(#a)"><g transform="translate(-16.45 111.027)"><g transform="translate(25.823)"><path d="M184.521,352.241s30.036,1.834,61.02,30.95,30.174,104.255,30.174,104.255l-92.5-2.362Z" transform="translate(-86.721 -352.241)" fill="#fff" stroke="#000" stroke-miterlimit="10" stroke-width="1"/><g transform="translate(0 8.416)"><path d="M264.309,372.921c20.729,15.505,62.922,107.607,49.526,107.928s-173.3-.962-178.319-5.931,16.744-48.875,16.744-48.875,33.635-69.122,85.721-69.553C255.343,356.346,242.178,356.37,264.309,372.921Z" transform="translate(-134.764 -356.466)" fill="#fff"/><path d="M163.016,409.312s-14.653,41.066-11.271,45.714,111.023,5.848,120.039,5.547-6.262-65.039-13.9-83.659" transform="translate(-118.427 -336.19)" fill="none" stroke="#1c191b" stroke-miterlimit="10" stroke-width="1"/></g></g><g transform="translate(0 0.004)"><path d="M189.286,405.818s12.075-8.078,43.281-.4c0,0,6.057,2.721,1.412,3.956s-16.236-.639-16.236-.639,17.973,1.643,18.379,4.768-16.943.09-16.943.09,18.694,2.942,18.471,6.112-10.62-.364-20.711.359-28.5,8.13-31.349,6.081S176.523,410.566,189.286,405.818Z" transform="translate(-62.549 -302.796)" fill="#fff" stroke="#1c191b" stroke-miterlimit="10" stroke-width="1"/><path d="M238.417,352.243c-18.642.167-39.074,5.963-58.869,22.1-27.017,22.028-72.847,91.281-52.837,127.032s66.1,21.809,82.066,14.613,47.18-31.132,50.586-40.919c3.993-11.466,2.249-19.56-12.141-23.159s-67.224,2.024-77.567,8.769" transform="translate(-121.798 -352.243)" fill="#fff" stroke="#000" stroke-miterlimit="10" stroke-width="1"/><path d="M196.787,425.314c3.9-11.207,2.292-19.18-11.211-22.894a40.908,40.908,0,0,0-.37,12.488c.88,7.652,3.493,14.131,6.682,17.568C194.371,429.7,196.12,427.234,196.787,425.314Z" transform="translate(-59.222 -302.485)" fill="#eeda36" stroke="#000" stroke-miterlimit="10" stroke-width="1"/></g><path d="M174.626,389.265s-15.758-11.542-9.689-16.857,11.3,5.66,11.3,5.66,3.657-9.626,8.873-6.409S174.626,389.265,174.626,389.265Z" transform="translate(-80.399 -333.684)" fill="#eeda36" stroke="#1c191b" stroke-miterlimit="10" stroke-width="1"/></g></g></g><g transform="translate(63.744)"><path d="M205.673,360.345c0,5.439-7.568,9.849-16.905,9.849s-16.9-4.409-16.9-9.849,7.568-9.849,16.9-9.849S205.673,354.906,205.673,360.345Z" transform="translate(-152.343 -230.428)" fill="#eeda36" stroke="#1c191b" stroke-miterlimit="10" stroke-width="1"/><path d="M164.543,337.984A12.56,12.56,0,1,0,177.1,325.526,12.509,12.509,0,0,0,164.543,337.984Z" transform="translate(-159.604 -255.189)" fill="#fff" stroke="#000" stroke-miterlimit="10" stroke-width="1"/><path d="M207.216,313.5H192.354c-9.879,0-17.963,9.2-17.963,20.452v23.035c0,.649.034,1.289.088,1.924a9.11,9.11,0,0,0-.255,2.109v28.827a9.279,9.279,0,0,0,9.251,9.253h5.9a9.279,9.279,0,0,0,9.251-9.253V377.438h8.594c9.879,0,17.963-9.2,17.963-20.452V333.95C225.178,322.7,217.094,313.5,207.216,313.5Z" transform="translate(-150.004 -267.117)" fill="#fff" stroke="#000" stroke-miterlimit="10" stroke-width="1"/><g transform="translate(8.035 29.186)"><path d="M181.2,352.868s14.569-4.84,18.988-14.24S203.5,327.2,203.5,327.2s8.212,11.245,21.191,14.007c10.713,2.282,10.277.7,11.336-1.8.968-2.28,1.623-18.154-14.651-27.923s-33.755-8.8-45.816,3.364-10.586,31.333-6.531,36.125S178.429,358.445,181.2,352.868Z" transform="translate(-166.097 -304.864)"/></g><circle cx="14.546" cy="14.546" r="14.546" transform="translate(0 28.314) rotate(-76.718)"/><g transform="translate(5.668 71.06)"><path d="M164.909,337.624a11.832,11.832,0,1,0,11.83-11.735A11.784,11.784,0,0,0,164.909,337.624Z" transform="translate(-164.909 -325.889)" fill="#fff"/><path d="M177.88,336.121s.52-7.971-7.666-7.086" transform="translate(-159.648 -322.837)" fill="none" stroke="#020202" stroke-miterlimit="10" stroke-width="1"/></g><g transform="translate(33.794 71.009)"><g transform="translate(11.643)"><circle cx="3.35" cy="3.35" r="3.35"/><path d="M195.888,328.722a2.859,2.859,0,1,0,2.86-2.858A2.86,2.86,0,0,0,195.888,328.722Z" transform="translate(-173.958 -325.863)"/></g><path d="M200.149,334.9s-1.683,4.905-5.242,5.242-6.347-3.607-6.541-6.686" transform="translate(-169.774 -318.335)" fill="none" stroke="#0c0c0c" stroke-miterlimit="10" stroke-width="1"/><g transform="translate(0 7.342)"><path d="M179.031,337.875a8.326,8.326,0,1,0,8.327-8.325A8.327,8.327,0,0,0,179.031,337.875Z" transform="translate(-179.031 -329.55)" fill="#e4b0c8"/><path d="M201.842,330.9a6.265,6.265,0,0,1,1.47.179v8.636a17.694,17.694,0,0,1-.311,3.754,7.648,7.648,0,0,1-1.159.106,6.337,6.337,0,0,1,0-12.675Z" transform="translate(-162.695 -328.214)" fill="#e4b0c8"/></g><path d="M192.734,325.864l-.685,11.407,5.446-3.319Z" transform="translate(-166.122 -325.864)" fill="#db7294"/></g></g><path d="M281.22,324.22h-59.9a10.768,10.768,0,0,1-10.769-10.767h0a10.768,10.768,0,0,1,10.769-10.767h59.9a10.766,10.766,0,0,1,10.767,10.767h0A10.766,10.766,0,0,1,281.22,324.22Z" transform="translate(-50.233 -277.839)" fill="none" stroke="#000" stroke-miterlimit="10" stroke-width="1"/></g><rect width="254.067" height="153.776" rx="9.347" transform="translate(19.384 12.517)" fill="none" stroke="#000" stroke-miterlimit="10" stroke-width="1"/></g><path d="M206.009,386.5a7.985,7.985,0,1,1-7.985-7.985A7.985,7.985,0,0,1,206.009,386.5Z" transform="translate(-51.192 -202.641)" fill="none" stroke="#000" stroke-miterlimit="10" stroke-width="0.25"/></g><g transform="translate(274.513 54.73)"><rect width="246.269" height="169.657" rx="7.86" transform="translate(5.31 20.232)" fill="#b4aaf9"/><rect width="213.666" height="129.323" rx="7.86" transform="translate(21.611 30.098)" fill="#fff" stroke="#000" stroke-miterlimit="10" stroke-width="1"/><path d="M263.03,251.355H362.1c-10-13.541-28.433-22.631-49.536-22.631S273.026,237.814,263.03,251.355Z" transform="translate(-185.3 -91.933)" fill="#db7294" stroke="#000" stroke-miterlimit="10" stroke-width="1"/><ellipse cx="16.237" cy="9.461" rx="16.237" ry="9.461" transform="translate(112.287 130.018)" stroke="#1c191b" stroke-miterlimit="10" stroke-width="1"/><path d="M273.348,213.3a12.065,12.065,0,1,0,12.065-11.966A12.016,12.016,0,0,0,273.348,213.3Z" transform="translate(-175.068 -119.089)" fill="#fff" stroke="#000" stroke-miterlimit="10" stroke-width="1"/><path d="M314.336,189.786H300.062c-9.49,0-17.254,8.839-17.254,19.644v22.127c0,.623.032,1.239.084,1.848a8.735,8.735,0,0,0-.245,2.028v27.69a8.913,8.913,0,0,0,8.887,8.887H297.2a8.913,8.913,0,0,0,8.887-8.887V251.2h8.253c9.49,0,17.254-8.841,17.254-19.646V209.43C331.59,198.625,323.826,189.786,314.336,189.786Z" transform="translate(-165.847 -130.546)" fill="#fff" stroke="#000" stroke-miterlimit="10" stroke-width="1"/><g transform="translate(101.254 42.723)"><path d="M289.342,227.6s14-4.649,18.24-13.679,3.187-10.976,3.187-10.976,7.887,10.8,20.355,13.456c10.291,2.191,9.873.669,10.888-1.727.93-2.191,1.56-17.439-14.071-26.822s-32.422-8.453-44.008,3.232-10.169,30.1-6.276,34.7S286.687,232.959,289.342,227.6Z" transform="translate(-274.841 -181.493)"/></g><path d="M297.472,195.324s-6.047.864-6.911,10.367-6.911,21.02-20.157,23.9-44.92,2.591-46.36-29.947,35.131-39.6,46.649-27.931c8.154,8.261,10.653,8.927,15.549-.576s20.829-17.541,36.041-3.587,4.272,29.5-3.215,31.807S302.628,191.15,297.472,195.324Z" transform="translate(-224.002 -160.042)" fill="none" stroke="#000" stroke-miterlimit="10" stroke-width="1"/><circle cx="6.134" cy="6.134" r="6.134" transform="translate(104.978 34.018)" fill="#db7294" stroke="#000" stroke-miterlimit="10" stroke-width="1"/><g transform="translate(98.981 82.945)"><path d="M273.7,212.959a11.364,11.364,0,1,0,11.364-11.271A11.318,11.318,0,0,0,273.7,212.959Z" transform="translate(-273.7 -201.688)" fill="#fff"/><path d="M286.157,211.516s.5-7.658-7.361-6.805" transform="translate(-268.647 -198.756)" fill="none" stroke="#020202" stroke-miterlimit="10" stroke-width="1"/></g><g transform="translate(125.996 82.896)"><g transform="translate(11.185 0.001)"><path d="M292.88,204.881a3.218,3.218,0,1,0,3.216-3.217A3.218,3.218,0,0,0,292.88,204.881Z" transform="translate(-292.88 -201.664)" fill="#0c0c0c"/><path d="M303.456,204.409a2.746,2.746,0,1,0,2.746-2.745A2.748,2.748,0,0,0,303.456,204.409Z" transform="translate(-282.392 -201.664)" fill="#0c0c0c"/></g><path d="M307.55,210.342s-1.617,4.712-5.037,5.037-6.1-3.466-6.282-6.423Z" transform="translate(-278.372 -194.432)" fill="#fff7f7" stroke="#0c0c0c" stroke-miterlimit="10" stroke-width="1"/><g transform="translate(0 7.051)"><path d="M287.264,213.2a8,8,0,1,0,8-8A8,8,0,0,0,287.264,213.2Z" transform="translate(-287.264 -205.204)" fill="#e4b0c8"/><path d="M309.176,206.5a6.117,6.117,0,0,1,1.412.169v8.3a17.093,17.093,0,0,1-.3,3.607,7.323,7.323,0,0,1-1.113.1,6.087,6.087,0,1,1,0-12.173Z" transform="translate(-271.572 -203.92)" fill="#e4b0c8"/></g><path d="M300.426,201.663l-.658,10.956L305,209.432Z" transform="translate(-274.864 -201.663)" fill="#db7294"/></g><path d="M298.727,250.848a6.715,6.715,0,1,1-6.714-6.716A6.713,6.713,0,0,1,298.727,250.848Z" transform="translate(-163.219 -76.654)" fill="none" stroke="#000" stroke-miterlimit="10" stroke-width="0.25"/></g><rect width="246.269" height="169.657" rx="7.86" fill="#b4aaf9"/><path d="M158.228,213.208a6.714,6.714,0,1,1-6.714-6.714A6.715,6.715,0,0,1,158.228,213.208Z" transform="translate(-28.031 -59.247)" fill="none" stroke="#000" stroke-miterlimit="10" stroke-width="0.25"/><g transform="translate(16.301 2.711)"><rect width="213.666" height="129.323" rx="7.86" transform="translate(0 7.155)" fill="#fff"/><g transform="translate(0 7.155)"><g clip-path="url(#b)"><g transform="translate(4.044 60.414)"><g transform="translate(0 34.594)"><path d="M168.842,185.219c-40.016,0-72.456,40.807-72.456,91.144H241.3C241.3,226.026,208.861,185.219,168.842,185.219Z" transform="translate(-96.386 -185.219)" fill="#fff" stroke="#000" stroke-miterlimit="10" stroke-width="1"/><g transform="translate(16.035 16.778)"><path d="M126.55,198.815a5.172,5.172,0,1,1-5.172-5.172A5.173,5.173,0,0,1,126.55,198.815Z" transform="translate(-92.767 -193.643)" fill="#eeda36"/><circle cx="5.748" cy="5.748" r="5.748" transform="translate(48.567 18.744)" fill="#eeda36"/><path d="M150.543,198.815a5.172,5.172,0,1,1-5.172-5.172A5.173,5.173,0,0,1,150.543,198.815Z" transform="translate(-68.974 -193.643)" fill="#eeda36"/><circle cx="4.454" cy="4.454" r="4.454" transform="translate(97.134 14.081)" fill="#eeda36"/><path d="M117.811,210.14a5.388,5.388,0,1,1-5.387-5.387A5.388,5.388,0,0,1,117.811,210.14Z" transform="translate(-101.862 -182.626)" fill="#eeda36"/><circle cx="5.748" cy="5.748" r="5.748" transform="translate(27.901 37.358)" fill="#eeda36"/><circle cx="4.742" cy="4.742" r="4.742" transform="translate(82.15 37.358)" fill="#eeda36"/><path d="M166.877,221.761a4.6,4.6,0,1,1-4.6-4.6A4.6,4.6,0,0,1,166.877,221.761Z" transform="translate(-51.638 -170.32)" fill="#eeda36"/><path d="M114.208,223.058a4.886,4.886,0,1,1-4.886-4.886A4.885,4.885,0,0,1,114.208,223.058Z" transform="translate(-104.437 -169.319)" fill="#eeda36"/><path d="M142.537,225.511a4.886,4.886,0,1,1-4.886-4.886A4.886,4.886,0,0,1,142.537,225.511Z" transform="translate(-76.344 -166.886)" fill="#eeda36"/></g></g><g transform="translate(108.943)"><path d="M191.714,216.742l1.444-4.86s.147-1.3-1.715-2.016l-30.381-11.693s-2.438-1.43-3.107.323-5.4,9.5-5.4,9.5-1.354,1.968.3,2.878,27.481,10.643,27.481,10.643l6.6,2.735s2.081.747,2.42-.249S191.714,216.742,191.714,216.742Z" transform="translate(-150.144 -138.323)" fill="#672ed6"/><path d="M195.7,212.139s2.565-13.26.448-15.746-4.119.179-5.166,3.533-2.7,9.689-2.7,9.689l-6.644-13.372s14.788-10.777,15.338-12.743.685-3.288-.341-3.3a27.987,27.987,0,0,0-4.178.832s4.991-4.816,3.442-6.527-6.957,2.219-6.957,2.219,1.94-7.313,1.048-8.717-6.943,6.915-8.614,10.018-4.67,8.245-4.67,8.245-1.992,1.555-1.9,2.388-2.44,2.683-2.826,3.031-3.4,6.646-6.254,13.069-7.07,15.149-7.07,15.149l-2.065,3.971s-2.207,3.23,2.384,4.543,22.749,8.755,22.749,8.755l5.756,2.215s1.729,2.42,3.135-3.147S195.7,212.139,195.7,212.139Z" transform="translate(-146.167 -167.849)" fill="#fff"/><g transform="translate(0 0.105)"><path d="M189.248,250.4c9.994-27.911,14.183-57.115,11.815-60.132-3.29-4.194-5.328,2.964-7.869,13.223l-6.644-13.372S202.5,179.263,202.5,174.939s-25.013,7.909-27.2,12.458c-1.412,2.93-9.893,26.834-24.207,47.61" transform="translate(-151.086 -161.827)" fill="none" stroke="#000" stroke-miterlimit="10" stroke-width="1"/><path d="M181.474,178.3s6.584-4.085,5.045-6.919-21.506,11.265-21.012,14.987" transform="translate(-136.795 -164.826)" fill="none" stroke="#000" stroke-miterlimit="10" stroke-width="1"/><path d="M177.172,177.1s4.1-8.136,1.749-9.14-10.743,12.527-11.721,16.67" transform="translate(-135.107 -167.902)" fill="none" stroke="#000" stroke-miterlimit="10" stroke-width="1"/></g><g transform="translate(1.376 59.028)"><line x1="34.58" y1="13.308" transform="translate(7.403)" fill="none" stroke="#000" stroke-miterlimit="10" stroke-width="1"/><line x1="37.456" y1="15.522" transform="translate(0 12.224)" fill="none" stroke="#000" stroke-miterlimit="10" stroke-width="1"/><g transform="translate(6.339 1.737)"><line x1="5.342" y2="13.967" transform="translate(25.826 9.849)" fill="none" stroke="#000" stroke-miterlimit="10" stroke-width="1"/><line x1="5.348" y2="13.769" transform="translate(19.191 7.297)" fill="none" stroke="#000" stroke-miterlimit="10" stroke-width="1"/><line x1="5.21" y2="13.587" transform="translate(13.117 4.65)" fill="none" stroke="#000" stroke-miterlimit="10" stroke-width="1"/><line x1="4.733" y2="13.561" transform="translate(6.718 2.114)" fill="none" stroke="#000" stroke-miterlimit="10" stroke-width="1"/><line x1="5.66" y2="13.042" fill="none" stroke="#000" stroke-miterlimit="10" stroke-width="1"/></g></g></g></g></g></g><g transform="translate(42.503)"><path d="M118.446,170.146a10.971,10.971,0,1,0,10.97-10.88A10.926,10.926,0,0,0,118.446,170.146Z" transform="translate(-112.969 -108.792)" fill="none" stroke="#000" stroke-miterlimit="10" stroke-width="2"/><path d="M156.247,191.218c0,5.045-7.019,9.134-15.676,9.134s-15.674-4.089-15.674-9.134,7.019-9.134,15.674-9.134S156.247,186.173,156.247,191.218Z" transform="translate(-106.573 -86.165)" fill="#672ed6" stroke="#211f21" stroke-miterlimit="10" stroke-width="1"/><path d="M157.676,147.775H143.9c-9.162,0-16.656,8.536-16.656,18.967V188.1c0,.6.03,1.2.08,1.785a8.455,8.455,0,0,0-.235,1.958v26.732a8.6,8.6,0,0,0,8.578,8.578h5.467a8.6,8.6,0,0,0,8.58-8.578V207.069h7.967c9.162,0,16.658-8.534,16.658-18.967v-21.36C174.334,156.311,166.837,147.775,157.676,147.775Z" transform="translate(-104.403 -120.187)" fill="#fff" stroke="#000" stroke-miterlimit="10" stroke-width="1"/><g transform="translate(31.558 50.426)"><g transform="translate(10.796)"><path d="M136.962,162.349a3.106,3.106,0,1,0,3.107-3.107A3.107,3.107,0,0,0,136.962,162.349Z" transform="translate(-136.962 -159.242)" fill="#141414"/><path d="M147.173,161.895a2.652,2.652,0,1,0,2.651-2.653A2.651,2.651,0,0,0,147.173,161.895Z" transform="translate(-126.836 -159.242)" fill="#141414"/></g><path d="M151.124,167.621s-1.561,4.549-4.862,4.862-5.887-3.346-6.065-6.2Z" transform="translate(-122.957 -152.26)" fill="#f7f6f6" stroke="#141414" stroke-miterlimit="10" stroke-width="0.223"/><g transform="translate(0 6.809)"><circle cx="7.721" cy="7.721" r="7.721" fill="#e4b0c8"/><path d="M152.693,163.91a5.909,5.909,0,0,1,1.364.165v8.008a16.588,16.588,0,0,1-.287,3.481,7.1,7.1,0,0,1-1.077.1,5.876,5.876,0,0,1,0-11.753Z" transform="translate(-116.392 -161.422)" fill="#e4b0c8"/></g><path d="M144.248,159.242l-.636,10.577,5.051-3.077Z" transform="translate(-119.571 -159.242)" fill="#d96980"/></g><path d="M142.295,191.159l2.392-12.964s13.416,4.29,23.673-3.93-6.58-11.522-3.864-5.407,12.123,8.638,23.762,7.355c17.323-1.91,17.758-22.838,7.8-28.983s-21.219,1.081-21.219,1.081,5.186-10.382-7.777-13.844c-10.657-2.844-18.636,6.176-19.809,10.165,0,0-17.56,1.731-25.372,12.763s-8.421,24.226-.709,36.25a71.844,71.844,0,0,0,16.911,18.5S139.59,196.586,142.295,191.159Z" transform="translate(-115.696 -133.923)"/><g transform="translate(5.477 50.474)"><path d="M118.446,170.146a10.971,10.971,0,1,0,10.97-10.88A10.926,10.926,0,0,0,118.446,170.146Z" transform="translate(-118.446 -159.266)" fill="#fff"/><path d="M130.473,168.754s.482-7.391-7.108-6.57" transform="translate(-113.568 -156.436)" fill="none" stroke="#090909" stroke-miterlimit="10" stroke-width="0.275"/></g></g><rect width="213.666" height="129.323" rx="7.86" transform="translate(0 7.155)" fill="none"/><rect width="213.666" height="129.323" rx="7.86" transform="translate(0 7.155)" fill="none" stroke="#000" stroke-miterlimit="10" stroke-width="1"/></g><g transform="translate(412.285 276.401)"><g transform="translate(0 13.089)"><rect width="248.554" height="171.231" rx="7.933" fill="#b4aaf9"/><path d="M365.9,359.308a6.777,6.777,0,1,1-6.776-6.776A6.776,6.776,0,0,1,365.9,359.308Z" transform="translate(-234.498 -203.918)" fill="none" stroke="#000" stroke-miterlimit="10" stroke-width="0.25"/></g><g transform="translate(16.453)"><rect width="215.649" height="130.523" rx="7.933" transform="translate(0 23.047)" fill="#fff"/><g transform="translate(0 23.047)"><g clip-path="url(#c)"><g transform="translate(-40.166 86.534)"><path d="M300.017,366.984s32.562-31.1,67.22-37.517,104.06-5.784,141.628,43.882-54.76,93.6-57.308,93.916-152.5-24.784-158.227-29.106S265.952,408.056,300.017,366.984Z" transform="translate(-281.271 -326.099)" fill="#672ed6" stroke="#000" stroke-miterlimit="10" stroke-width="0.909"/><g transform="translate(31.678)"><path d="M425.657,341.642s56.153,112.805,43.583,134.353-105.6,42.1-152.033,18.556c-54.292-27.535,17.138-141.847,34.007-168.189Z" transform="translate(-297.176 -326.362)" fill="#672ed6" stroke="#000" stroke-miterlimit="10" stroke-width="0.909"/><path d="M317.979,353.291a12.855,12.855,0,1,0,12.856-12.856A12.856,12.856,0,0,0,317.979,353.291Z" transform="translate(-276.547 -312.406)" fill="#fff"/></g></g></g></g><rect width="215.649" height="130.523" rx="7.933" transform="translate(0 23.047)" fill="none" stroke="#000" stroke-miterlimit="10" stroke-width="1"/><g transform="translate(18.728)"><ellipse cx="29.314" cy="45.331" rx="29.314" ry="45.331" transform="translate(15.959 138.415) rotate(-84.148)" fill="#672ed6" stroke="#000" stroke-miterlimit="10" stroke-width="0.972"/><g transform="translate(26.824)"><g transform="translate(8.475)"><path d="M330.989,311.972a11.871,11.871,0,1,0,11.87-11.773A11.822,11.822,0,0,0,330.989,311.972Z" transform="translate(-326.16 -242.725)" fill="none" stroke="#000" stroke-miterlimit="10" stroke-width="1.88"/><path d="M373.434,287.767h-14.91c-9.912,0-18.022,9.233-18.022,20.52V331.4c0,.651.034,1.295.088,1.93a9.176,9.176,0,0,0-.255,2.117v28.923a9.309,9.309,0,0,0,9.281,9.283h5.915a9.309,9.309,0,0,0,9.281-9.283v-12.45h8.622c9.912,0,18.022-9.233,18.022-20.52V308.287C391.457,297,383.347,287.767,373.434,287.767Z" transform="translate(-316.892 -255.053)" fill="#fff" stroke="#000" stroke-miterlimit="10" stroke-width="0.94"/><g transform="translate(33.049 57.423)"><g transform="translate(11.681 0.001)"><path d="M351.023,303.534a3.361,3.361,0,1,0,3.36-3.36A3.361,3.361,0,0,0,351.023,303.534Z" transform="translate(-351.023 -300.174)" fill="#0c0c0c"/><path d="M362.07,303.042a2.869,2.869,0,1,0,2.87-2.868A2.869,2.869,0,0,0,362.07,303.042Z" transform="translate(-340.068 -300.174)" fill="#0c0c0c"/></g><path d="M366.345,309.239s-1.689,4.921-5.26,5.26-6.369-3.619-6.562-6.708Z" transform="translate(-335.871 -292.62)" fill="#fff7f7" stroke="#0c0c0c" stroke-miterlimit="10" stroke-width="0.21"/><g transform="translate(0 7.366)"><path d="M345.158,312.225a8.353,8.353,0,1,0,8.353-8.353A8.353,8.353,0,0,0,345.158,312.225Z" transform="translate(-345.158 -303.872)" fill="#e4b0c8"/><path d="M368.043,305.224a6.314,6.314,0,0,1,1.476.179v8.664a17.8,17.8,0,0,1-.311,3.766,7.478,7.478,0,0,1-1.165.108,6.358,6.358,0,0,1,0-12.717Z" transform="translate(-328.768 -302.531)" fill="#e4b0c8"/></g><path d="M358.905,300.174l-.688,11.444,5.464-3.329Z" transform="translate(-332.207 -300.174)" fill="#db7294"/></g><path d="M356.082,340.21l2.75-18.1s50.086,6.28,66.322-18.05-.825-33.962-9.082-32.585-17.907,13.211-17.907,13.211,7.684-10.458,0-12.109-16.174,6.329-20.6,14.585c0,0-33.014-3.077-44.175,16.9s-2.115,34.149,18.3,54.788l1.364-11.544Z" transform="translate(-328.564 -271.342)"/><g transform="translate(4.829 57.474)"><path d="M330.989,311.972a11.871,11.871,0,1,0,11.87-11.773A11.822,11.822,0,0,0,330.989,311.972Z" transform="translate(-330.989 -300.199)" fill="#fff"/><path d="M344,310.464s.522-8-7.69-7.108" transform="translate(-325.71 -297.136)" fill="none" stroke="#020202" stroke-miterlimit="10" stroke-width="0.259"/></g></g><g transform="translate(0 5.389)"><path d="M381.788,284.473s-33,34.1-46.682,44.478c0,0-17.8-39.383-7.694-50.373C335.512,269.762,375.026,274.939,381.788,284.473Z" transform="translate(-324.309 -274.048)" fill="#eeda36" stroke="#000" stroke-miterlimit="10" stroke-width="0.94"/><line x1="40.237" y2="39.658" transform="translate(6.335 4.01)" fill="none" stroke="#000" stroke-miterlimit="10" stroke-width="0.94"/></g></g><g transform="translate(40.974 99.273)"><path d="M383.924,322.472,389.3,342.44l-40.739,12.9-2.1-8.339-15.047-8.943,6.23-16.851,17.819,13.854,1.175.97s.649,1.1,3.949-.713Z" transform="translate(-331.414 -321.163)" fill="#672ed6"/><g transform="translate(5.265)"><path d="M378.025,321.41l-38.844,21.384-.237,5.076" transform="translate(-329.212 -320.964)" fill="none" stroke="#000" stroke-miterlimit="10" stroke-width="0.94"/><line x2="21.179" y2="15.659" fill="none" stroke="#000" stroke-miterlimit="10" stroke-width="0.94"/></g></g><g transform="translate(0 119.304)"><path d="M357.081,332.871s-27.487,18.222-46.24,10.906" transform="translate(-310.841 -329.629)" fill="none" stroke="#000" stroke-miterlimit="10" stroke-width="0.94"/><circle cx="3.068" cy="3.068" r="3.068" transform="translate(42.497)" fill="none" stroke="#000" stroke-miterlimit="10" stroke-width="0.94"/><g transform="translate(80.68 6.874)"><path d="M351.35,337.856a3.16,3.16,0,1,0,3.161-3.161A3.16,3.16,0,0,0,351.35,337.856Z" transform="translate(-351.35 -334.695)" fill="none" stroke="#000" stroke-miterlimit="10" stroke-width="0.94"/><path d="M352.937,336.282s11.213,32.364,30.8,41.773" transform="translate(-349.776 -333.121)" fill="none" stroke="#000" stroke-miterlimit="10" stroke-width="0.94"/></g></g></g></g></g><g transform="translate(709.98 363.879)"><g transform="translate(0 14.423)"><rect width="292.835" height="201.737" rx="9.347" fill="#b4aaf9"/><path d="M528.332,418.4a7.985,7.985,0,1,1-7.984-7.985A7.985,7.985,0,0,1,528.332,418.4Z" transform="translate(-373.516 -235.328)" fill="none" stroke="#000" stroke-miterlimit="10" stroke-width="0.25"/></g><g transform="translate(19.384 0)"><rect width="254.067" height="153.776" rx="9.347" transform="translate(0 26.155)" fill="#fff" stroke="#000" stroke-miterlimit="10" stroke-width="1"/><g transform="translate(29.308)"><g transform="translate(0)"><path d="M514.5,408.989s38.192,18.293,52.51-8.484-8.514-59.652-27.059-64.424S506.791,383.8,514.5,408.989Z" transform="translate(-422.176 -294.923)"/><path d="M533.02,417.1s-16.648,12.46-42.1,2.916-9.809-56.207,0-70.522,31.831-23.065,41.633-18.558S550.435,387.846,533.02,417.1Z" transform="translate(-457.177 -300.908)"/><circle cx="18.276" cy="18.276" r="18.276" transform="matrix(0.594, -0.804, 0.804, 0.594, 0, 29.4)"/></g><g transform="translate(48.853 12.162)"><path d="M542.39,360.821s-6.14-14.023-11.315-13.151-3.72,9.97-3.007,14.919,3.113,11.219-2.33,17.011S547.162,376.731,542.39,360.821Z" transform="translate(-458.522 -295.328)" fill="#fff" stroke="#000" stroke-miterlimit="10" stroke-width="1"/><path d="M536.951,334.615H521.316c-10.394,0-18.9,9.683-18.9,21.516v24.236c0,.683.036,1.356.092,2.023a9.614,9.614,0,0,0-.267,2.221v30.327a9.761,9.761,0,0,0,9.733,9.733h6.2a9.761,9.761,0,0,0,9.733-9.733V401.883h9.04c10.393,0,18.9-9.681,18.9-21.516V356.131C555.847,344.3,547.343,334.615,536.951,334.615Z" transform="translate(-481.097 -308.236)" fill="#fff" stroke="#000" stroke-miterlimit="10" stroke-width="1"/><g transform="translate(31.217 60.014)"><path d="M507.3,360.262a8.759,8.759,0,1,0,8.759-8.759A8.759,8.759,0,0,0,507.3,360.262Z" transform="translate(-507.299 -351.503)" fill="#e4b0c8"/><path d="M531.3,352.92a6.685,6.685,0,0,1,1.546.187v9.086a18.72,18.72,0,0,1-.325,3.95,7.978,7.978,0,0,1-1.221.112,6.667,6.667,0,1,1,0-13.334Z" transform="translate(-490.113 -350.098)" fill="#e4b0c8"/></g><g transform="translate(43.466 52.289)"><g transform="translate(0 0.001)"><path d="M513.449,351.148a3.524,3.524,0,1,0,3.523-3.523A3.525,3.525,0,0,0,513.449,351.148Z" transform="translate(-513.449 -347.625)" fill="#0c0c0c"/><path d="M525.033,350.632a3.008,3.008,0,1,0,3.009-3.007A3.009,3.009,0,0,0,525.033,350.632Z" transform="translate(-501.962 -347.625)" fill="#0c0c0c"/></g><path d="M529.78,358.026s-1.772,5.16-5.515,5.513-6.68-3.794-6.881-7.032Z" transform="translate(-509.547 -338.817)" fill="#fff7f7" stroke="#0c0c0c" stroke-miterlimit="10" stroke-width="0.223"/><path d="M521.715,347.625l-.721,12,5.73-3.491Z" transform="translate(-505.967 -347.625)" fill="#db7294"/></g><path d="M501.671,344.537l.014-.016c.613-9.016,5.762-17.365,12.372-17.487,14.583-.265,14.3,10.606,14.3,10.606,24.908-30.755,57.017-12.46,46.676,10.11s-50.3,19.054-50.3,19.054c-2.047.05-3.955-.659-5.68-.313-4.74.956-8.04,6.789-9.47,14.216C506.038,399.148,492.2,358.859,501.671,344.537Z" transform="translate(-484.893 -321.37)"/><g transform="translate(0 50.715)"><path d="M505.7,346.834a14.068,14.068,0,0,1,6.475,1.577v3.828a10.718,10.718,0,1,0,0,17.134V373.2a14,14,0,1,1-6.475-26.367Z" transform="translate(-491.625 -346.834)"/><g transform="translate(1.627 1.627)"><path d="M492.442,360a12.447,12.447,0,1,0,12.446-12.344A12.4,12.4,0,0,0,492.442,360Z" transform="translate(-492.442 -347.651)" fill="#fff"/><path d="M506.087,358.415s.548-8.385-8.064-7.453" transform="translate(-486.908 -344.439)" fill="none" stroke="#020202" stroke-miterlimit="10" stroke-width="0.275"/></g></g></g></g><g transform="translate(0 26.155)"><g clip-path="url(#a)"><g transform="translate(9.555 38.081)"><g transform="translate(0 49.628)"><path d="M457.178,495.83c9.592-75.047,74.934-130.095,119.027-114.128,35.085,12.7,50.473,83.048,55.629,114.128Z" transform="translate(-457.178 -365.991)" fill="#e4b0c8" stroke="#020106" stroke-miterlimit="10" stroke-width="1"/><rect width="43.235" height="21.427" rx="4.752" transform="translate(123.326 21.427) rotate(180)" fill="#db7294" stroke="#020106" stroke-miterlimit="10" stroke-width="1"/><g transform="translate(83.468)"><line y2="19.268" transform="translate(35.559 1.081)" fill="none" stroke="#020106" stroke-miterlimit="10" stroke-width="1"/><line y2="21.427" transform="translate(30.699)" fill="none" stroke="#020106" stroke-miterlimit="10" stroke-width="1"/><line y2="21.427" transform="translate(25.582)" fill="none" stroke="#020106" stroke-miterlimit="10" stroke-width="1"/><line y2="21.427" transform="translate(20.466)" fill="none" stroke="#020106" stroke-miterlimit="10" stroke-width="1"/><line y2="21.427" transform="translate(15.349)" fill="none" stroke="#020106" stroke-miterlimit="10" stroke-width="1"/><line y2="21.427" transform="translate(10.233)" fill="none" stroke="#020106" stroke-miterlimit="10" stroke-width="1"/><line y2="21.427" transform="translate(5.117)" fill="none" stroke="#020106" stroke-miterlimit="10" stroke-width="1"/><line y2="18.058" transform="translate(0 1.689)" fill="none" stroke="#020106" stroke-miterlimit="10" stroke-width="1"/></g></g><g transform="translate(29.808)"><g transform="translate(0 4.759)"><path d="M474.018,350.069c2.284-1.526,4.613,7.995,5.776,14.308-.422-5.21-.874-13.651,1.089-14.256,2.087-.643,4.2,8.516,5.208,14.135-.42-5.208-.924-13.977.928-14.131,2.378-.2,4.147,7.867,5.16,14.135-.591-5.475-.91-12.143.978-12.52,3.229-.647,4.2,3.228,5.814,12.273s4.2,15.18,16.473,20.349c10.739,4.523,23.456,11.022,35.34,50.443L516.1,436.447c-.042-1-.092-2-.155-2.992-2.41-36.82-23.107-35.529-32.922-42.958S469.578,353.031,474.018,350.069Z" transform="translate(-472.144 -349.906)" fill="#fff" stroke="#020106" stroke-miterlimit="10" stroke-width="1"/><path d="M481.962,483.045c15.539-20.076,25.959-56.487,24.352-89.089l34.3-2.131c1.846,5.991,3.675,12.739,5.471,20.41,7.662,32.7,2.675,56.519-2.89,70.809Z" transform="translate(-462.409 -308.337)" fill="#e4b0c8" stroke="#020106" stroke-miterlimit="10" stroke-width="1"/><g transform="translate(43.075 75.133)"><path d="M531.789,406.061H494.766c.03-3.368-.056-6.712-.271-10.014-.161-2.452-.408-4.724-.723-6.853l32.364-1.563C528.038,392.984,529.926,399.072,531.789,406.061Z" transform="translate(-493.772 -387.63)" fill="#db7294" stroke="#020106" stroke-miterlimit="10" stroke-width="1"/><g transform="translate(7.208 0.251)"><line x2="4.252" y2="18.179" transform="translate(19.974)" fill="none" stroke="#020106" stroke-miterlimit="10" stroke-width="1"/><line x2="2.298" y2="17.853" transform="translate(13.207 0.327)" fill="none" stroke="#020106" stroke-miterlimit="10" stroke-width="1"/><line x2="1.09" y2="17.853" transform="translate(6.299 0.327)" fill="none" stroke="#020106" stroke-miterlimit="10" stroke-width="1"/><line x2="0.606" y2="16.731" transform="translate(0 0.964)" fill="none" stroke="#020106" stroke-miterlimit="10" stroke-width="1"/></g></g></g><g transform="translate(89.218)"><path d="M545.942,366.851c1.4-8.212-6.549-17.035-3.9-19.118S559.382,359,555.221,372.475s-19.3,15.858-13.985,36.007c1.888,7.154,6,16.911,11.121,27.467l-34.521.886c-2.255-24.191.135-41.93,2.91-47.746C524.016,382.234,544.536,375.06,545.942,366.851Z" transform="translate(-516.941 -347.516)" fill="#fff" stroke="#000" stroke-miterlimit="10" stroke-width="1"/><path d="M541.068,484.71c-6.608-18.8-18.548-54.541-21.944-76.613-.8-5.2-1.384-10.185-1.8-14.917l32.954-3.033a557.8,557.8,0,0,0,32.568,58.25,73.763,73.763,0,0,1,11.414,36.314Z" transform="translate(-516.557 -305.243)" fill="#e4b0c8" stroke="#020106" stroke-miterlimit="10" stroke-width="1"/><g transform="translate(0.24 80.143)"><path d="M518.668,405.39c-.822-6.254-1.336-12.157-1.607-17.634h31.295c2.384,5.3,5.141,10.964,8.1,16.724Z" transform="translate(-517.061 -387.756)" fill="#db7294" stroke="#000" stroke-miterlimit="10" stroke-width="1"/><g transform="translate(6.968)"><line x2="4.64" y2="17.307" transform="translate(19.884 0.327)" fill="none" stroke="#000" stroke-miterlimit="10" stroke-width="1"/><line x2="2.24" y2="16.805" transform="translate(13.256 0.327)" fill="none" stroke="#000" stroke-miterlimit="10" stroke-width="1"/><line x2="0.858" y2="17.31" transform="translate(7.229)" fill="none" stroke="#000" stroke-miterlimit="10" stroke-width="1"/><line x2="1.324" y2="17.473" fill="none" stroke="#000" stroke-miterlimit="10" stroke-width="1"/></g></g></g></g></g></g></g><rect width="254.067" height="153.776" rx="9.347" transform="translate(0 26.155)" fill="none" stroke="#000" stroke-miterlimit="10" stroke-width="1"/></g></g></g><g transform="translate(689.397)"><rect width="488.885" height="364.326" rx="13.61" fill="#eeda36"/><path d="M584.468,343.977h-42.6a10.6,10.6,0,0,1-9.727-14.814l22.958-53.02,19.644-45.366a10.6,10.6,0,0,1,19.457,0l19.644,45.366,22.958,53.02a10.6,10.6,0,0,1-9.727,14.814Z" transform="translate(-334.201 66.087)" fill="#eeda36"/><path d="M576.959,247.178a12.516,12.516,0,1,1-12.516-12.516A12.516,12.516,0,0,1,576.959,247.178Z" transform="translate(-313.698 76.275)" fill="none" stroke="#000" stroke-miterlimit="10" stroke-width="1"/><g transform="translate(29.213 7.511)"><rect width="438.489" height="267.942" rx="6.245" transform="translate(0 20.465)" fill="#fff" stroke="#000" stroke-miterlimit="10" stroke-width="1"/><g transform="translate(28.517 30.287)"><g transform="translate(0)"><rect width="299.514" height="226.077" rx="13.447" transform="translate(299.514 226.077) rotate(180)" fill="#fff" stroke="#000" stroke-miterlimit="10" stroke-width="1"/><g transform="translate(0.689 15.577)"><g transform="translate(18.415)"><path d="M481.02,110.454a5.064,5.064,0,1,1-5.063-5.113A5.089,5.089,0,0,1,481.02,110.454Z" transform="translate(-470.892 -105.341)" fill="#db7294" stroke="#000" stroke-miterlimit="10" stroke-width="1"/><path d="M491.148,110.454a5.064,5.064,0,1,1-5.065-5.113A5.091,5.091,0,0,1,491.148,110.454Z" transform="translate(-460.849 -105.341)" fill="#eeda36" stroke="#000" stroke-miterlimit="10" stroke-width="1"/><path d="M501.275,110.454a5.064,5.064,0,1,1-5.065-5.113A5.091,5.091,0,0,1,501.275,110.454Z" transform="translate(-450.806 -105.341)" fill="#672ed6" stroke="#000" stroke-miterlimit="10" stroke-width="1"/></g><line x2="298.825" transform="translate(0 23.063)" fill="#fff" stroke="#000" stroke-miterlimit="10" stroke-width="1"/></g></g><g transform="translate(18.46 49.686)"><g transform="translate(208.267 83.697)"><rect width="55.789" height="34.769" fill="none" stroke="#9e88e5" stroke-miterlimit="10" stroke-width="1"/><g transform="translate(6.844 9.134)"><line x2="40.497" fill="none" stroke="#9e88e5" stroke-miterlimit="10" stroke-width="1"/><line x2="40.497" transform="translate(0 6.331)" fill="none" stroke="#9e88e5" stroke-miterlimit="10" stroke-width="1"/><line x2="40.497" transform="translate(0 12.662)" fill="none" stroke="#9e88e5" stroke-miterlimit="10" stroke-width="1"/></g></g><g transform="translate(101.377)"><path d="M562.275,166.867V126.062a40.858,40.858,0,1,0,39.877,32.2Z" transform="translate(-521.47 -118.902)" fill="#db7294"/><path d="M584.351,154.668a40.8,40.8,0,0,0-39.877-32.2v40.805Z" transform="translate(-498.658 -122.467)" fill="#e4b0c8"/></g><g transform="translate(13.089 2.691)"><path d="M529.492,130.693H480.579a3.437,3.437,0,0,1-3.438-3.438h0a3.438,3.438,0,0,1,3.438-3.438h48.913a3.437,3.437,0,0,1,3.438,3.438h0A3.436,3.436,0,0,1,529.492,130.693Z" transform="translate(-477.141 -123.818)" fill="none" stroke="#9e88e5" stroke-miterlimit="10" stroke-width="1"/><g transform="translate(3.522 11.983)"><line x2="47.342" fill="none" stroke="#9e88e5" stroke-miterlimit="10" stroke-width="1"/><line x2="47.342" transform="translate(0 6.331)" fill="none" stroke="#9e88e5" stroke-miterlimit="10" stroke-width="1"/><line x2="47.342" transform="translate(0 12.662)" fill="none" stroke="#9e88e5" stroke-miterlimit="10" stroke-width="1"/></g><path d="M506.92,126.087H524.8l25.733,23.573" transform="translate(-447.61 -121.568)" fill="none" stroke="#9e88e5" stroke-miterlimit="10" stroke-width="1"/><g transform="translate(158.904 3.983)"><g transform="translate(36.274)"><path d="M627.49,132.693H578.577a3.438,3.438,0,0,1-3.438-3.438h0a3.437,3.437,0,0,1,3.438-3.438H627.49a3.437,3.437,0,0,1,3.438,3.438h0A3.438,3.438,0,0,1,627.49,132.693Z" transform="translate(-575.139 -125.818)" fill="none" stroke="#9e88e5" stroke-miterlimit="10" stroke-width="1"/><g transform="translate(3.521 11.982)"><line x2="47.342" fill="none" stroke="#9e88e5" stroke-miterlimit="10" stroke-width="1"/><line x2="47.342" transform="translate(0 6.331)" fill="none" stroke="#9e88e5" stroke-miterlimit="10" stroke-width="1"/><line x2="47.342" transform="translate(0 12.662)" fill="none" stroke="#9e88e5" stroke-miterlimit="10" stroke-width="1"/><g transform="translate(0 19.222)"><line x2="47.342" fill="none" stroke="#9e88e5" stroke-miterlimit="10" stroke-width="1"/><line x2="47.342" transform="translate(0 6.331)" fill="none" stroke="#9e88e5" stroke-miterlimit="10" stroke-width="1"/><line x2="47.342" transform="translate(0 12.662)" fill="none" stroke="#9e88e5" stroke-miterlimit="10" stroke-width="1"/></g></g></g><path d="M556.926,142.637l17.286-14.164h15.322" transform="translate(-556.926 -123.185)" fill="none" stroke="#9e88e5" stroke-miterlimit="10" stroke-width="1"/></g></g><g transform="translate(0 57.137)"><g transform="translate(15.839)"><path d="M480.7,154.7v80.189H602.064" transform="translate(-476.365 -147.645)" fill="none" stroke="#9e88e5" stroke-miterlimit="10" stroke-width="1"/><path d="M482.853,158.658h-4.332l2.166-3.751,2.166-3.751,2.166,3.751,2.166,3.751Z" transform="translate(-478.522 -151.155)" fill="#9e88e5"/><path d="M540.985,197.115v-4.331l3.751,2.166,3.751,2.166-3.751,2.166-3.751,2.166Z" transform="translate(-416.58 -109.875)" fill="#9e88e5"/></g><path d="M475.654,219.8l29.51-26.592,24.282,26.111,30.623-56.093,22.394,54.733" transform="translate(-465.526 -139.184)" fill="none" stroke="#eeda36" stroke-miterlimit="10" stroke-width="1"/><path d="M470.569,179.623s23.247-24.161,35.175-12.671,9.11,20.333,33.059,15.176,53.711,2.756,59.6,48.007" transform="translate(-470.569 -138.564)" fill="none" stroke="#db7294" stroke-miterlimit="10" stroke-width="1" stroke-dasharray="4"/></g></g></g><g transform="translate(146.526 20.466)"><g clip-path="url(#e)"><g transform="translate(47.103 103.447)"><path d="M660.118,149.056s73.671,28.8,112.708,153.351L722.931,327.16,686,232.869Z" transform="translate(-429.253 -140.041)" fill="#672ed6" stroke="#000" stroke-miterlimit="10" stroke-width="1"/><path d="M555.386,178.21s-12.547-8.062-11-11.91,5.2-1.687,5.2-1.687-3.74-2.3-2.005-4.836a3.462,3.462,0,0,1,4.083-1.6s-2.649-3.89-.1-5.332,6.391-.522,6.391-.522-1.47-3.236-1.4-4.376,1.725-3.661,7.072-2.416,16.8,7.606,20.653,9.57,8.214,6.521,8.337,5.047,1.779-10.876,5.429-13.623,5.109-3.187,5.756,2.035.474,19.761,7.542,30.476,9.486,17.855,16.953,26.537,10.9,13.055,10.9,13.055l-33.669,27.4s-32.661-49.158-32.9-49.489S561.8,183.2,555.386,178.21Z" transform="translate(-544.146 -144.529)" fill="#fff"/><g transform="translate(0 0.152)"><path d="M546.932,157.492s-4.179-6.809,3.647-5.979,18.435,8.076,23.545,11.912" transform="translate(-542.599 -137.825)" fill="none" stroke="#000" stroke-miterlimit="10" stroke-width="1"/><path d="M584.252,185.625s-2.862-8.743,9.612-12.368c0,0-4.752-18.56,4.25-26.8s4.1,12.982,10.124,25.907,12.844,25.4,19.253,32.2,11.946,14.222,11.946,14.222l-34.043,27.333s-11.631-17.678-29.576-45.113-33.782-28.04-31.372-34.782c2.966-8.287,24.113,11.227,24.113,11.227" transform="translate(-544.202 -144.605)" fill="none" stroke="#000" stroke-miterlimit="10" stroke-width="1"/><path d="M548.959,154.683s-4.033-4.951,1.089-6.258a8.54,8.54,0,0,1,3.131-.074c6.16.8,16.4,5.973,23.87,11.745" transform="translate(-540.98 -140.995)" fill="none" stroke="#000" stroke-miterlimit="10" stroke-width="1"/><path d="M586.391,161.049s-14.651-13.675-31.37-15.937c-6.045-.819-5.8,5.21.143,7.722" transform="translate(-537.86 -144.179)" fill="none" stroke="#000" stroke-miterlimit="10" stroke-width="1"/></g><g transform="translate(40.419 10.643)"><path d="M643.654,230.533a106.121,106.121,0,0,1-14.213-11.858c-15.063-14.643-27.931-32.88-27.931-32.88l-37.015,31.7s40.371,62.655,64.613,70.487,79.656-55.195,79.656-55.195l4.362-82.913a109.458,109.458,0,0,0-18.785,13.147c-13.73,12.4-37.714,34.551-64.9,55.655" transform="translate(-564.496 -149.873)" fill="#672ed6" stroke="#000" stroke-miterlimit="10" stroke-width="1"/><g transform="translate(0 35.921)"><path d="M613.588,183.472c-7.226-8.692-12.078-15.563-12.078-15.563l-37.015,31.7s4.694,7.282,11.834,17.184Z" transform="translate(-564.496 -167.909)" fill="#fff" stroke="#000" stroke-miterlimit="10" stroke-width="1"/><path d="M587.086,175.2a2.517,2.517,0,1,1-2.517-2.517A2.518,2.518,0,0,1,587.086,175.2Z" transform="translate(-547.087 -163.174)" fill="#fff" stroke="#000" stroke-miterlimit="10" stroke-width="1"/></g></g><g transform="translate(134.401 4.596)"><path d="M766.872,310.188c.006-.689,0-14.808,0-15.5,0-81.654-34.74-147.85-77.593-147.85s-77.593,66.2-77.593,147.85c0,.693-.006,14.812,0,15.5Z" transform="translate(-611.684 -146.837)" fill="#672ed6"/><line y2="126.292" transform="translate(77.342 37.06)" fill="none" stroke="#000" stroke-miterlimit="10" stroke-width="1"/><path d="M665.545,185.222l29.917-26.979c-9.207-7.339-19.311-11.406-29.917-11.406-10.255,0-20.966,4.513-29.927,11.4Z" transform="translate(-587.949 -146.837)" fill="#fff" stroke="#000" stroke-miterlimit="10" stroke-width="1"/><path d="M622.832,183.486c-7.074,22.3-11.145,48.439-11.145,76.394,0,.693-.006,14.812,0,15.5H766.872c.006-.689,0-14.808,0-15.5,0-28.6-4.264-55.312-11.645-77.941" transform="translate(-611.684 -112.029)" fill="none" stroke="#000" stroke-miterlimit="10" stroke-width="1"/><path d="M695.419,158.233c-9.209-7.341-19.319-11.4-29.925-11.4-10.568,0-20.643,4.027-29.825,11.319" transform="translate(-587.899 -146.837)" fill="none" stroke="#000" stroke-miterlimit="10" stroke-width="1"/></g></g></g></g><rect width="438.489" height="267.942" rx="6.245" transform="translate(0 20.465)" fill="none" stroke="#000" stroke-miterlimit="10" stroke-width="1"/><g transform="translate(331.356)"><g transform="translate(40.897 117.637)"><path d="M698.057,171.651l-16.507-24.79a12.312,12.312,0,0,0-14.543-4.71,12.315,12.315,0,0,0-14.545,4.71l-16.507,24.79a12.32,12.32,0,0,0,3.426,17.082l2.362,1.573a12.322,12.322,0,0,0,17.084-3.428l8.18-12.283,8.18,12.283a12.32,12.32,0,0,0,17.082,3.428l2.362-1.573A12.318,12.318,0,0,0,698.057,171.651Z" transform="translate(-633.888 -141.378)" fill="#fefeff" stroke="#000" stroke-miterlimit="10" stroke-width="1"/><path d="M654.23,156.3a2.394,2.394,0,1,1-2.394-2.394A2.394,2.394,0,0,1,654.23,156.3Z" transform="translate(-618.464 -128.955)" fill="#fefeff" stroke="#000" stroke-miterlimit="10" stroke-width="1"/></g><path d="M679.813,132.047a12.873,12.873,0,1,1-12.872-12.766A12.82,12.82,0,0,1,679.813,132.047Z" transform="translate(-572.979 -45.654)" fill="none" stroke="#000" stroke-miterlimit="10" stroke-width="2"/><path d="M648.57,105.8h16.166c10.749,0,19.544,10.014,19.544,22.251v25.063c0,.705-.036,1.4-.094,2.093a10.025,10.025,0,0,1,.277,2.294v31.363A10.1,10.1,0,0,1,674.4,198.93h-6.415a10.094,10.094,0,0,1-10.064-10.066v-13.5H648.57c-10.749,0-19.544-10.012-19.544-22.249V128.051C629.026,115.814,637.821,105.8,648.57,105.8Z" transform="translate(-597.813 -59.022)" fill="#fff" stroke="#000" stroke-miterlimit="10" stroke-width="1"/><path d="M695.585,162.668,692.6,143.036s-54.312,6.809-71.919-19.574.9-36.826,9.849-35.334,19.419,14.324,19.419,14.324-8.333-11.338,0-13.129,17.538,6.863,22.334,15.816c0,0,35.8-3.338,47.9,18.323s2.294,37.031-19.841,59.413l-1.48-12.52Z" transform="translate(-613.354 -76.684)"/><path d="M708.824,105.315a23,23,0,1,1-23-23A23,23,0,0,1,708.824,105.315Z" transform="translate(-564.302 -82.313)"/><g transform="translate(24.279 61.807)"><g transform="translate(7.76 18.749)"><path d="M661.438,132.041a9.282,9.282,0,1,1-9.281-9.281A9.282,9.282,0,0,1,661.438,132.041Z" transform="translate(-616.12 -122.76)" fill="#e4b0c8"/><path d="M631.118,123.693a7.045,7.045,0,0,0-1.637.2v9.628a19.918,19.918,0,0,0,.14,4.194,11.226,11.226,0,0,0,1.5.11,7.065,7.065,0,1,0,0-14.131Z" transform="translate(-629.441 -121.835)" fill="#e4b0c8"/></g><g transform="translate(9.075 11.766)"><path d="M647.07,122.554a3.3,3.3,0,1,1-3.3-3.3A3.3,3.3,0,0,1,647.07,122.554Z" transform="translate(-619.82 -119.254)" fill="#141414"/><path d="M635.737,122.072a2.818,2.818,0,1,1-2.818-2.818A2.819,2.819,0,0,1,635.737,122.072Z" transform="translate(-630.101 -119.254)" fill="#141414"/></g><path d="M634.514,128.159s1.657,4.834,5.166,5.166,6.256-3.555,6.445-6.588Z" transform="translate(-616.65 -100.067)" fill="#f7f6f6" stroke="#141414" stroke-miterlimit="10" stroke-width="0.223"/><path d="M661.994,126.355c0,7.114-5.16,12.882-11.526,12.882s-11.524-5.768-11.524-12.882,5.159-12.882,11.524-12.882S661.994,119.241,661.994,126.355Z" transform="translate(-612.257 -113.22)" fill="none" stroke="#672ed6" stroke-miterlimit="10" stroke-width="1"/><ellipse cx="9.489" cy="11.521" rx="9.489" ry="11.521" fill="none" stroke="#672ed6" stroke-miterlimit="10" stroke-width="1"/><path d="M639.853,119.281v11.188l-5.865-3.573Z" transform="translate(-617.171 -107.461)" fill="#d96980"/><path d="M634.923,121.19s4.643-1.946,8.008.835" transform="translate(-616.244 -106.225)" fill="none" stroke="#672ed6" stroke-miterlimit="10" stroke-width="1"/></g><g transform="translate(81.09 73.627)"><path d="M679.813,132.047a12.873,12.873,0,1,1-12.872-12.766A12.82,12.82,0,0,1,679.813,132.047Z" transform="translate(-654.069 -119.281)" fill="#fff"/><path d="M657.04,130.414s-.566-8.672,8.339-7.71" transform="translate(-651.13 -115.96)" fill="none" stroke="#090909" stroke-miterlimit="10" stroke-width="0.275"/></g></g></g></g></g><g transform="translate(28.692)"><g transform="translate(954.116)"><path d="M556.85,63.4h79.662a18.43,18.43,0,0,1,18.431,18.431v79.529l-18.737-17.2H556.85a18.43,18.43,0,0,1-18.429-18.429v-43.9A18.43,18.43,0,0,1,556.85,63.4Z" transform="translate(-538.421 -63.397)" fill="#fff" stroke="#000" stroke-miterlimit="10" stroke-width="1"/></g><g transform="translate(654.268 258.991)"><g transform="translate(0 30.273)"><path d="M501.065,208.635H409.136A21.268,21.268,0,0,0,387.869,229.9v91.775l21.621-19.853h91.574a21.265,21.265,0,0,0,21.267-21.267V229.9A21.266,21.266,0,0,0,501.065,208.635Z" transform="translate(-387.869 -208.635)" fill="#fff" stroke="#000" stroke-miterlimit="10" stroke-width="1"/><g transform="translate(27.702 39.036)"><path d="M420.27,237.482a9.246,9.246,0,1,1-9.245-9.247A9.246,9.246,0,0,1,420.27,237.482Z" transform="translate(-401.778 -228.235)" fill="#fff" stroke="#000" stroke-miterlimit="10" stroke-width="1"/><path d="M436.421,237.482a9.246,9.246,0,1,1-9.245-9.247A9.246,9.246,0,0,1,436.421,237.482Z" transform="translate(-385.763 -228.235)" fill="#fff" stroke="#000" stroke-miterlimit="10" stroke-width="1"/><path d="M452.571,237.482a9.246,9.246,0,1,1-9.245-9.247A9.246,9.246,0,0,1,452.571,237.482Z" transform="translate(-369.748 -228.235)" fill="#fff" stroke="#000" stroke-miterlimit="10" stroke-width="1"/></g></g><g transform="translate(26.489)"><path d="M514.365,193.435H422.436A21.268,21.268,0,0,0,401.169,214.7v91.775l21.621-19.853h91.574a21.265,21.265,0,0,0,21.267-21.267V214.7A21.266,21.266,0,0,0,514.365,193.435Z" transform="translate(-401.169 -193.435)" fill="#fff" stroke="#000" stroke-miterlimit="10" stroke-width="1"/><g transform="translate(27.702 39.036)"><path d="M433.57,222.282a9.246,9.246,0,1,1-9.245-9.247A9.246,9.246,0,0,1,433.57,222.282Z" transform="translate(-415.078 -213.035)" fill="#fff" stroke="#000" stroke-miterlimit="10" stroke-width="1"/><path d="M449.721,222.282a9.246,9.246,0,1,1-9.245-9.247A9.246,9.246,0,0,1,449.721,222.282Z" transform="translate(-399.063 -213.035)" fill="#fff" stroke="#000" stroke-miterlimit="10" stroke-width="1"/><path d="M465.871,222.282a9.246,9.246,0,1,1-9.245-9.247A9.246,9.246,0,0,1,465.871,222.282Z" transform="translate(-383.048 -213.035)" fill="#fff" stroke="#000" stroke-miterlimit="10" stroke-width="1"/></g></g></g><g transform="translate(252.345 83.144)"><path d="M290.5,105.143H205.685a19.62,19.62,0,0,0-19.62,19.62v84.671l19.946-18.315H290.5a19.621,19.621,0,0,0,19.62-19.62V124.763A19.621,19.621,0,0,0,290.5,105.143Z" transform="translate(-186.065 -105.143)" fill="#fff" stroke="#000" stroke-miterlimit="10" stroke-width="1"/><g transform="translate(25.557 36.015)"><path d="M215.957,131.756a8.53,8.53,0,1,1-8.53-8.53A8.531,8.531,0,0,1,215.957,131.756Z" transform="translate(-198.897 -123.226)" fill="#fff" stroke="#000" stroke-miterlimit="10" stroke-width="1"/><path d="M230.858,131.756a8.53,8.53,0,1,1-8.53-8.53A8.532,8.532,0,0,1,230.858,131.756Z" transform="translate(-184.121 -123.226)" fill="#fff" stroke="#000" stroke-miterlimit="10" stroke-width="1"/><path d="M245.757,131.756a8.53,8.53,0,1,1-8.53-8.53A8.53,8.53,0,0,1,245.757,131.756Z" transform="translate(-169.347 -123.226)" fill="#fff" stroke="#000" stroke-miterlimit="10" stroke-width="1"/></g></g><g transform="translate(1014.984 475.643)"><path d="M673.415,302.215H588.6a19.619,19.619,0,0,0-19.62,19.62V406.5l19.948-18.315h84.484a19.619,19.619,0,0,0,19.62-19.62V321.835A19.619,19.619,0,0,0,673.415,302.215Z" transform="translate(-568.983 -302.215)" fill="#fff" stroke="#000" stroke-miterlimit="10" stroke-width="1"/><g transform="translate(25.557 36.014)"><path d="M598.875,328.828a8.53,8.53,0,1,1-8.53-8.53A8.53,8.53,0,0,1,598.875,328.828Z" transform="translate(-581.815 -320.297)" fill="#fff" stroke="#000" stroke-miterlimit="10" stroke-width="1"/><circle cx="8.53" cy="8.53" r="8.53" transform="translate(29.675)" fill="#fff" stroke="#000" stroke-miterlimit="10" stroke-width="1"/><path d="M628.677,328.828a8.531,8.531,0,1,1-8.53-8.53A8.531,8.531,0,0,1,628.677,328.828Z" transform="translate(-552.265 -320.297)" fill="#fff" stroke="#000" stroke-miterlimit="10" stroke-width="1"/></g></g><g transform="translate(0 344.396)"><g transform="translate(34.703 34.265)"><path d="M145.139,281.4a32.741,32.741,0,0,0-14.794-22.245,35.351,35.351,0,0,0-38.29,0A32.741,32.741,0,0,0,77.262,281.4c-3.551,19.869,13.942,30.554,17.22,34.559a14.4,14.4,0,0,1,3.278,4,24.4,24.4,0,0,1,.88,4.547h25.121a24.4,24.4,0,0,1,.88-4.547,14.4,14.4,0,0,1,3.278-4C131.2,311.952,148.69,301.267,145.139,281.4Z" transform="translate(-76.788 -253.521)" fill="#eeda36" stroke="#000" stroke-miterlimit="10" stroke-width="1"/><g transform="translate(18.686 27.958)"><path d="M96.631,309.331s.006-18.837-1.376-21.526-7.722-12.1-8.8-14.087,1.131-4.288,2.82-1.354c1.446,2.512,7.612,11.1,8.988,14.615s2.553,23.292,2.553,23.292Z" transform="translate(-86.171 -264.175)" fill="#fff"/><path d="M98.749,309.331s-.006-18.837,1.376-21.526,7.724-12.1,8.8-14.087-1.131-4.288-2.822-1.354c-1.444,2.512-7.612,11.1-8.988,14.615s-2.553,23.292-2.553,23.292Z" transform="translate(-77.848 -264.175)" fill="#fff"/><g transform="translate(2.07)"><path d="M115.161,276.46c-2.547,1.191-6.891,1.336-10.1.364l-.088.066c-2.645,1.96-6.327,1.211-9.042-.773a29.541,29.541,0,0,1-8.711,1.5l-.012-1.8a29.7,29.7,0,0,0,7.2-1.052c-1.872-2.027-2.27-4.22-1.02-5.716a3.379,3.379,0,0,1,4.822-.811,4.2,4.2,0,0,1,.825,5.706,4.837,4.837,0,0,1-1.269,1.233,6.309,6.309,0,0,0,5.312.809,4.985,4.985,0,0,1-1.378-1.149,3.116,3.116,0,0,1,.125-4.051,3.343,3.343,0,0,1,3.35-1.629,3.111,3.111,0,0,1,2.3,2.571,4.667,4.667,0,0,1-.97,3.653,14.011,14.011,0,0,0,8.018-.486Zm-11.3-5.306a2.991,2.991,0,0,0-.627.659c-.7.966-.446,1.52-.153,1.892a4.187,4.187,0,0,0,1.659,1.127,3.166,3.166,0,0,0,1.044-2.725,1.444,1.444,0,0,0-.992-1.213A1.157,1.157,0,0,0,103.858,271.155Zm-7.612,2.892a3.551,3.551,0,0,0,1.33-1.076,2.415,2.415,0,0,0-.446-3.286c-.751-.568-1.613-.38-2.362.514s.086,2.394,1.024,3.4Q96.007,273.828,96.246,274.046Z" transform="translate(-87.21 -267.558)" fill="#fff"/></g></g><g transform="translate(20.722 66.629)"><path d="M100.838,289.311c-6.821,0-12.657-1.785-13.645-2.336.076.135.159.269.227.406.918,1.878,2.061,17.5,4.515,23.533a4.731,4.731,0,0,0,1.43,2.171,13.824,13.824,0,0,0,7.473,1.739,13.819,13.819,0,0,0,7.473-1.739,4.731,4.731,0,0,0,1.43-2.171c2.456-6.033,3.6-21.655,4.515-23.533.068-.137.151-.271.227-.406C113.495,287.527,107.661,289.311,100.838,289.311Z" transform="translate(-87.193 -286.975)" fill="#fff" stroke="#000" stroke-miterlimit="10" stroke-width="1"/><path d="M100.447,294.966A43.633,43.633,0,0,0,112.6,293.2c.259-1.854.49-3.525.7-4.8a36.26,36.26,0,0,1-25.72,0c.213,1.279.446,2.95.7,4.8A43.633,43.633,0,0,0,100.447,294.966Z" transform="translate(-86.802 -285.57)"/><path d="M99.843,298.756a45.6,45.6,0,0,0,10.89-1.406c.277-1.561.526-3.169.757-4.744a36.243,36.243,0,0,1-23.294,0c.231,1.575.482,3.183.757,4.744A45.6,45.6,0,0,0,99.843,298.756Z" transform="translate(-86.198 -281.391)"/><path d="M88.948,296.863a28.652,28.652,0,0,0,1.247,4.246c.076.183.151.345.229.508a49.247,49.247,0,0,0,8.674.888,49.247,49.247,0,0,0,8.674-.888c.078-.163.155-.325.229-.508a28.39,28.39,0,0,0,1.249-4.246A36.315,36.315,0,0,1,88.948,296.863Z" transform="translate(-85.453 -277.17)"/></g></g><rect width="7.317" height="24.23" rx="1.819" transform="translate(66.057)" fill="#fff" stroke="#000" stroke-miterlimit="10" stroke-width="1"/><path d="M108.452,261.7l-.064-.034a3.623,3.623,0,0,1-1.482-4.9l8.028-14.969a3.621,3.621,0,0,1,4.9-1.48l.064.034a3.621,3.621,0,0,1,1.48,4.9l-8.026,14.969A3.621,3.621,0,0,1,108.452,261.7Z" transform="translate(-12.644 -232.777)" fill="#fff" stroke="#000" stroke-miterlimit="10" stroke-width="1"/><path d="M87.918,261.7l.066-.034a3.621,3.621,0,0,0,1.48-4.9L81.437,241.8a3.621,3.621,0,0,0-4.9-1.48l-.066.034a3.625,3.625,0,0,0-1.48,4.9l8.026,14.969A3.621,3.621,0,0,0,87.918,261.7Z" transform="translate(-44.296 -232.777)" fill="#fff" stroke="#000" stroke-miterlimit="10" stroke-width="1"/><path d="M83.431,264.764l-.016.07a3.621,3.621,0,0,1-4.288,2.8L62.5,264.141a3.623,3.623,0,0,1-2.8-4.29l.016-.072a3.623,3.623,0,0,1,4.29-2.8l16.62,3.5A3.621,3.621,0,0,1,83.431,264.764Z" transform="translate(-59.104 -215.904)" fill="#fff" stroke="#000" stroke-miterlimit="10" stroke-width="1"/><path d="M82.784,275.812l-.022-.07a3.621,3.621,0,0,0-4.493-2.458l-16.3,4.776a3.621,3.621,0,0,0-2.456,4.493l.02.072a3.623,3.623,0,0,0,4.493,2.458l16.3-4.776A3.625,3.625,0,0,0,82.784,275.812Z" transform="translate(-59.364 -199.802)" fill="#fff" stroke="#000" stroke-miterlimit="10" stroke-width="1"/><path d="M117.2,264.764l.016.07a3.623,3.623,0,0,0,4.29,2.8l16.622-3.493a3.623,3.623,0,0,0,2.8-4.29l-.014-.072a3.624,3.624,0,0,0-4.29-2.8L120,260.474A3.622,3.622,0,0,0,117.2,264.764Z" transform="translate(-2.092 -215.904)" fill="#fff" stroke="#000" stroke-miterlimit="10" stroke-width="1"/><path d="M117.686,275.812l.02-.07a3.623,3.623,0,0,1,4.5-2.458l16.3,4.776a3.622,3.622,0,0,1,2.458,4.493l-.02.072a3.625,3.625,0,0,1-4.5,2.458l-16.3-4.776A3.623,3.623,0,0,1,117.686,275.812Z" transform="translate(-1.675 -199.802)" fill="#fff" stroke="#000" stroke-miterlimit="10" stroke-width="1"/></g></g></g><text transform="translate(1073.158 123.976)" font-size="52" font-family="SegoeUI, Segoe UI"><tspan x="0" y="0">?</tspan></text></g></svg>